<svg fill="none" height="28" viewBox="0 0 115 28" width="115" xmlns="http://www.w3.org/2000/svg"><g fill="#fff"><path clip-rule="evenodd" d="m54.834 0h5.3192v4.75959h-4.207c-1.1108 0-1.6677.55492-1.6677 1.6662v.95192h5.8745v-.00103h5.5963v20.38432h-5.5963v-15.6643h-5.8745v15.6465h-5.2518l.0151.0179h-6.6809l-7.8498-9.4236v9.4236h-5.589l-.0014-.0015v-27.483864h5.589v16.491164l7.8512-9.39018h6.3214v-1.78548c0-1.79807.5163-3.17885 1.5474-4.14381 1.0325-.964954 2.5668-1.44743 4.6043-1.44743zm-6.1517 7.80026-8.2777 9.75194 8.2777 9.7839z" fill-rule="evenodd"/><path d="m27.269 27.7436v-11.0651h.0015c0-3.4107-.7686-5.8564-2.3029-7.33716-1.5343-1.48075-3.4934-2.22113-5.8746-2.22113-1.4821 0-2.7263.24341-3.7313.73313s-1.8649 1.1707-2.5799 2.04292l-.5162-2.53844h-4.88276v20.38728h5.59616v-10.4306c0-1.7719.3974-3.1469 1.1907-4.1249.7946-.978 1.9185-1.4677 3.3745-1.4677 2.7524 0 4.1286 1.7575 4.1286 5.2739v10.7478z"/><path d="m5.59623 27.7418v-20.38437h-5.59623v20.38437z"/><path d="m73.4106 23.1607c.7932.555 1.8127.8331 3.0569.8331 1.2443 0 2.1304-.1912 2.8177-.5752.6874-.3839 1.0326-.9316 1.0326-1.6459 0-.5288-.1581-.9258-.4757-1.1895-.3176-.2652-.7672-.4564-1.3501-.5752-.5815-.1188-1.5343-.2579-2.8583-.4159-1.7997-.2376-3.2948-.5418-4.4854-.9128-1.1906-.3694-2.1433-.9519-2.8583-1.7444-.7149-.7926-1.0717-1.8502-1.0717-3.1731 0-1.3228.364-2.492 1.092-3.5092.728-1.01854 1.7533-1.80382 3.0758-2.36019 1.3226-.55493 2.8453-.83312 4.5652-.83312 2.7785.02608 5.0219.62157 6.7288 1.78502 1.7068 1.16349 2.6262 2.77609 2.7582 4.83779h-5.3192c-.0798-.7664-.4829-1.3952-1.2109-1.8835-.728-.4897-1.6605-.7331-2.7988-.7331-1.0587 0-1.9114.1985-2.5596.5955-.6482.3969-.9731.9258-.9731 1.5865 0 .4752.1726.8331.5163 1.0707s.7932.41 1.3501.5158c.5554.1058 1.4821.2246 2.7785.3564 2.7524.3173 4.8625.9056 6.3315 1.7648s2.2028 2.3327 2.2028 4.422c0 1.3213-.3901 2.4848-1.1703 3.4903-.7802 1.0041-1.8649 1.7778-3.2556 2.3197-1.3893.5419-2.9975.8128-4.8233.8128-2.8307 0-5.1336-.6274-6.9072-1.8835-1.7735-1.2562-2.7118-2.9674-2.8177-5.1363h5.3193c.0797.8983.5162 1.6256 1.3095 2.1805z"/><path d="m106.754 27.762v-11.0651c0-3.4106-.773-5.8564-2.321-7.33712-1.548-1.48075-3.42-2.22114-5.9344-2.22114-2.5147 0-4.526.9128-6.0342 2.73694v-9.87558h-5.5963v27.7606h5.5963v-10.4696c0-1.7445.4031-3.1064 1.2109-4.0844.8077-.978 1.978-1.4677 3.3542-1.4677s2.4087.4433 3.0965 1.3286c.688.8867 1.032 2.1747 1.032 3.867v10.8275z"/><g clip-rule="evenodd" fill-rule="evenodd"><path d="m112.545 22.6713c.274.2304.412.5376.412.923 0 .2419-.061.4564-.182.6418-.12.1855-.297.3347-.527.4448l.758 1.3997h-1.038l-.643-1.1867h-.445v1.1867h-.94v-3.7555h1.517c.451 0 .814.1159 1.088.3462zm-1.139 1.433c.176 0 .317-.0464.421-.1406.104-.0927.157-.2173.157-.3709 0-.1651-.05-.2912-.148-.3796-.099-.0884-.242-.1318-.43-.1318h-.527v1.0214h.527z"/><path d="m109.494 21.1312c.561-.313 1.17-.4695 1.83-.4695s1.286.1565 1.846.4695c.561.3129 1.006.7418 1.336 1.2851.329.5434.494 1.1389.494 1.788s-.165 1.2605-.494 1.8038c-.33.5434-.775.9722-1.336 1.2852-.561.3129-1.176.4694-1.846.4694s-1.271-.1565-1.83-.4694c-.562-.313-1.007-.7418-1.336-1.2852-.329-.5433-.494-1.1388-.494-1.7879s.165-1.2605.494-1.8039c.329-.5433.774-.9722 1.336-1.2851zm3.223.6998c-.423-.242-.887-.3622-1.393-.3622s-.965.1202-1.376.3622c-.412.242-.74.5737-.982.9968s-.363.8925-.363 1.4083.121.9635.363 1.375.568.739.982.9809c.413.242.871.3622 1.376.3622.504 0 .97-.1202 1.393-.3622.424-.2419.756-.5708.998-.9881s.363-.878.363-1.3837-.121-.9693-.363-1.3924-.574-.7548-.998-.9968z"/></g></g></svg>